<svg width="204" height="34" viewBox="0 0 204 34" fill="none" xmlns="http://www.w3.org/2000/svg">
<path d="M19.8158 1.31676C16.5284 3.047 7.92045 10.2563 4.02742 13.6447C3.16227 14.3935 3.81118 14.5099 4.02746 14.7261C4.5909 15.2896 4.24374 15.5913 2.94607 16.4564C1.64839 17.3215 1.64839 18.4029 1.86467 19.0517C2.08095 19.7006 2.94607 19.4843 2.94607 20.5657C2.94607 21.6471 3.81118 22.2959 5.10886 21.8634C6.147 21.5173 6.11816 22.0075 5.97398 22.2959L0.999513 26.8378C0.422768 27.2703 -0.514442 28.395 0.350675 29.4331C2.08091 31.1634 3.52277 30.875 4.02742 30.5145C5.39719 29.8657 8.22324 28.5248 8.56929 28.3517C9.00185 28.1355 10.9484 28.7843 10.2995 29.6494C9.65068 30.5145 10.0832 32.0285 12.4623 31.1634C14.8414 30.2983 14.1925 31.1634 13.3274 32.2448C12.4623 33.3262 14.4088 33.7587 14.6251 33.7587C14.8414 33.7587 18.5181 32.0285 19.3833 31.8122C20.0753 31.6392 21.546 32.461 22.1949 32.8936C24.4298 31.8122 29.3754 29.3466 31.2786 28.1355C33.6577 26.6215 33.874 28.7843 34.3065 25.7564C34.6526 23.3341 33.153 23.4494 32.36 23.8099C31.7833 24.0982 30.2837 24.7615 28.8995 25.1076C27.5154 25.4536 28.3228 24.8192 28.8995 24.4587L33.874 20.5657C34.0902 20.4215 34.4795 19.9601 34.3065 19.268C34.1335 18.5759 33.0809 18.8355 32.5763 19.0517L29.5484 20.1331C30.3414 19.7006 31.7977 18.6192 31.2786 17.7541C30.7595 16.8889 29.4763 17.2494 28.8995 17.5378L23.2763 20.3494C19.8158 22.0796 21.6902 20.3494 23.06 19.268C25.0065 17.9703 28.8995 15.202 28.8995 14.5099C28.8995 13.8178 29.6205 13.2122 29.9809 12.9959C30.7019 12.6354 31.9707 11.655 31.2786 10.6168C30.5865 9.57869 28.6833 10.1843 27.8181 10.6168C27.3856 10.761 25.093 11.9145 19.3833 15.375C13.6735 18.8355 16.7158 16.3843 18.9507 14.7261C22.6274 12.1308 30.154 6.68055 30.8461 5.64241C31.7112 4.34474 30.4135 3.26328 27.3856 4.99357C24.3577 6.72387 24.1414 6.50753 25.6553 5.42613C26.8665 4.56102 28.467 2.83085 28.6833 2.1819C29.3775 0.0984925 28.7698 -1.4516 23.06 2.1819C15.9228 6.72376 16.5716 5.64235 19.8158 3.26328C23.06 0.884203 23.9251 -0.846029 19.8158 1.31676Z" fill="url(#paint0_linear_127_528)"/>
<path d="M39.7198 17.4961V7.52993H40.7372V16.5202H45.4711V17.4961H39.7198ZM62.7768 17.4961L66.2096 7.52993H67.5592L70.992 17.4961H69.9331L66.6733 8.09745H67.0747L63.8357 17.4961H62.7768ZM64.3063 15.0807V14.1256H69.4555V15.0807H64.3063ZM89.0596 17.4961V7.52993H90.0839L95.5722 15.6966V7.52993H96.5965V17.4961H95.5722L90.0839 9.32245V17.4961H89.0596ZM119.347 17.7037C118.645 17.7037 118.013 17.5814 117.45 17.3369C116.887 17.0924 116.408 16.744 116.011 16.2918C115.619 15.8397 115.319 15.2952 115.111 14.6585C114.903 14.0172 114.8 13.302 114.8 12.513C114.8 11.4702 114.979 10.5613 115.339 9.78615C115.704 9.00639 116.225 8.40197 116.904 7.97287C117.582 7.54377 118.396 7.32922 119.347 7.32922C120.408 7.32922 121.271 7.57838 121.935 8.07668C122.604 8.57038 123.07 9.23479 123.333 10.0699L122.309 10.3191C122.092 9.71002 121.734 9.22325 121.236 8.85875C120.742 8.49425 120.126 8.31199 119.388 8.31199C118.608 8.30738 117.96 8.48271 117.443 8.83799C116.927 9.18865 116.537 9.68234 116.274 10.3191C116.015 10.9512 115.884 11.6825 115.879 12.513C115.875 13.3435 116.001 14.0748 116.26 14.7069C116.523 15.3344 116.915 15.8281 117.436 16.188C117.958 16.5433 118.608 16.7232 119.388 16.7279C120.103 16.7279 120.694 16.5894 121.16 16.3126C121.626 16.0358 121.979 15.639 122.219 15.1222C122.463 14.6054 122.602 13.9941 122.634 13.2881H120.336V12.4161H123.7C123.714 12.5222 123.721 12.6353 123.721 12.7552C123.725 12.8706 123.728 12.9536 123.728 13.0044C123.728 13.9041 123.566 14.7092 123.243 15.4198C122.92 16.1257 122.433 16.684 121.783 17.0947C121.137 17.5007 120.325 17.7037 119.347 17.7037ZM145.82 17.7037C145.059 17.7037 144.385 17.5468 143.799 17.2331C143.218 16.9193 142.761 16.4764 142.429 15.9043C142.097 15.3321 141.931 14.6631 141.931 13.8972V7.53685L142.955 7.52993V13.7657C142.955 14.2825 143.043 14.73 143.218 15.1084C143.393 15.4821 143.622 15.7912 143.903 16.0358C144.189 16.2757 144.501 16.4533 144.838 16.5687C145.174 16.684 145.502 16.7417 145.82 16.7417C146.143 16.7417 146.473 16.684 146.81 16.5687C147.147 16.4533 147.456 16.2757 147.737 16.0358C148.019 15.7912 148.247 15.4821 148.423 15.1084C148.598 14.73 148.686 14.2825 148.686 13.7657V7.52993H149.71V13.8972C149.71 14.6631 149.544 15.3321 149.212 15.9043C148.879 16.4718 148.42 16.9147 147.834 17.2331C147.253 17.5468 146.582 17.7037 145.82 17.7037ZM168.468 17.4961V7.52993H172.316C172.413 7.52993 172.521 7.53454 172.641 7.54377C172.766 7.54838 172.89 7.56223 173.015 7.5853C173.536 7.66373 173.977 7.84598 174.337 8.13205C174.701 8.4135 174.976 8.76878 175.16 9.19787C175.349 9.62697 175.444 10.1022 175.444 10.6236C175.444 11.3757 175.246 12.0285 174.849 12.5822C174.452 13.1359 173.884 13.4842 173.146 13.6273L172.793 13.7103H169.485V17.4961H168.468ZM174.503 17.4961L172.537 13.4404L173.513 13.0667L175.672 17.4961H174.503ZM169.485 12.7414H172.288C172.371 12.7414 172.468 12.7368 172.579 12.7276C172.689 12.7183 172.798 12.7022 172.904 12.6791C173.245 12.6053 173.525 12.4646 173.741 12.2569C173.963 12.0493 174.127 11.8025 174.233 11.5164C174.344 11.2303 174.399 10.9327 174.399 10.6236C174.399 10.3145 174.344 10.0169 174.233 9.73079C174.127 9.44011 173.963 9.19095 173.741 8.98333C173.525 8.7757 173.245 8.63497 172.904 8.56115C172.798 8.53808 172.689 8.52424 172.579 8.51962C172.468 8.51039 172.371 8.50578 172.288 8.50578H169.485V12.7414ZM197.907 17.7037C197.146 17.7037 196.472 17.5468 195.886 17.2331C195.305 16.9193 194.848 16.4764 194.516 15.9043C194.184 15.3321 194.018 14.6631 194.018 13.8972V7.53685L195.042 7.52993V13.7657C195.042 14.2825 195.13 14.73 195.305 15.1084C195.48 15.4821 195.709 15.7912 195.99 16.0358C196.276 16.2757 196.588 16.4533 196.925 16.5687C197.261 16.684 197.589 16.7417 197.907 16.7417C198.23 16.7417 198.56 16.684 198.897 16.5687C199.234 16.4533 199.543 16.2757 199.824 16.0358C200.106 15.7912 200.334 15.4821 200.51 15.1084C200.685 14.73 200.773 14.2825 200.773 13.7657V7.52993H201.797V13.8972C201.797 14.6631 201.631 15.3321 201.299 15.9043C200.966 16.4718 200.507 16.9147 199.921 17.2331C199.34 17.5468 198.669 17.7037 197.907 17.7037Z" fill="#21072D"/>
<path d="M158.894 29.2626V24.2953H160.812C161.09 24.2953 161.333 24.3528 161.54 24.4678C161.747 24.5828 161.907 24.738 162.022 24.9335C162.137 25.1267 162.195 25.3405 162.195 25.5751C162.195 25.8419 162.124 26.0799 161.981 26.2892C161.838 26.4961 161.648 26.6399 161.408 26.7203L161.402 26.5513C161.724 26.6433 161.976 26.8043 162.16 27.0343C162.344 27.2642 162.436 27.5425 162.436 27.869C162.436 28.1565 162.375 28.4049 162.254 28.6141C162.132 28.8211 161.96 28.9809 161.74 29.0936C161.519 29.2063 161.262 29.2626 160.97 29.2626H158.894ZM159.404 28.7763H160.846C161.049 28.7763 161.23 28.7406 161.391 28.6693C161.552 28.5957 161.679 28.4922 161.771 28.3589C161.865 28.2255 161.912 28.0645 161.912 27.8759C161.912 27.692 161.87 27.5264 161.784 27.3792C161.699 27.232 161.583 27.1147 161.436 27.0274C161.291 26.9377 161.126 26.8928 160.939 26.8928H159.404V28.7763ZM159.404 26.4133H160.808C160.967 26.4133 161.112 26.3777 161.243 26.3064C161.374 26.2328 161.477 26.1328 161.553 26.0063C161.632 25.8798 161.671 25.7338 161.671 25.5682C161.671 25.3336 161.589 25.1428 161.426 24.9956C161.265 24.8484 161.059 24.7748 160.808 24.7748H159.404V26.4133ZM164.38 30.9184L165.101 28.9625L165.112 29.542L163.48 25.5372H164.018L165.357 28.8866H165.136L166.371 25.5372H166.888L164.887 30.9184H164.38ZM170.317 29.2626V24.2953H173.17V24.8024H170.824V26.5272H172.756V27.0308H170.824V29.2626H170.317ZM174.587 29.2626V24.1919H175.094V29.2626H174.587ZM178.277 29.3558C178.054 29.3558 177.859 29.3213 177.691 29.2523C177.525 29.1833 177.384 29.0902 177.267 28.9729C177.152 28.8556 177.059 28.7222 176.987 28.5727C176.916 28.421 176.864 28.2611 176.832 28.0933C176.8 27.9231 176.784 27.7541 176.784 27.5862V25.5372H177.294V27.4378C177.294 27.6425 177.314 27.8322 177.353 28.007C177.392 28.1818 177.454 28.3347 177.539 28.4658C177.627 28.5946 177.738 28.6946 177.874 28.7659C178.012 28.8372 178.179 28.8728 178.374 28.8728C178.553 28.8728 178.711 28.8418 178.847 28.7797C178.985 28.7176 179.1 28.6291 179.192 28.5141C179.286 28.3968 179.357 28.2554 179.405 28.0898C179.454 27.9219 179.478 27.7334 179.478 27.5241L179.837 27.6034C179.837 27.9852 179.77 28.306 179.636 28.5658C179.503 28.8257 179.319 29.0223 179.085 29.1557C178.85 29.2891 178.581 29.3558 178.277 29.3558ZM179.53 29.2626V28.3451H179.478V25.5372H179.985V29.2626H179.53ZM183.25 29.3661C182.887 29.3661 182.571 29.2856 182.305 29.1247C182.04 28.9637 181.834 28.7372 181.687 28.4451C181.54 28.153 181.466 27.8104 181.466 27.4171C181.466 27.0101 181.539 26.6583 181.684 26.3616C181.829 26.0649 182.032 25.8361 182.294 25.6751C182.559 25.5142 182.87 25.4337 183.229 25.4337C183.597 25.4337 183.911 25.5188 184.171 25.6889C184.431 25.8568 184.627 26.0983 184.761 26.4133C184.894 26.7284 184.955 27.1044 184.944 27.5413H184.426V27.362C184.417 26.879 184.312 26.5145 184.112 26.2685C183.914 26.0224 183.625 25.8994 183.243 25.8994C182.843 25.8994 182.536 26.0293 182.322 26.2892C182.11 26.549 182.005 26.9193 182.005 27.3999C182.005 27.869 182.11 28.2335 182.322 28.4934C182.536 28.751 182.838 28.8797 183.229 28.8797C183.496 28.8797 183.728 28.8188 183.926 28.6969C184.126 28.5727 184.284 28.3945 184.399 28.1622L184.871 28.3451C184.724 28.6693 184.507 28.9211 184.219 29.1005C183.934 29.2776 183.611 29.3661 183.25 29.3661ZM181.825 27.5413V27.117H184.671V27.5413H181.825ZM189.023 29.2626V27.362C189.023 27.155 189.003 26.9653 188.964 26.7928C188.925 26.618 188.862 26.4662 188.775 26.3375C188.69 26.2064 188.578 26.1052 188.44 26.0339C188.304 25.9626 188.139 25.927 187.943 25.927C187.764 25.927 187.605 25.958 187.467 26.0201C187.332 26.0822 187.217 26.1719 187.122 26.2892C187.03 26.4041 186.96 26.5444 186.912 26.71C186.864 26.8756 186.839 27.0641 186.839 27.2757L186.481 27.1964C186.481 26.8146 186.547 26.4938 186.681 26.234C186.814 25.9741 186.998 25.7775 187.233 25.6441C187.467 25.5107 187.736 25.444 188.04 25.444C188.263 25.444 188.457 25.4785 188.623 25.5475C188.791 25.6165 188.932 25.7096 189.047 25.8269C189.164 25.9442 189.259 26.0787 189.33 26.2305C189.401 26.38 189.453 26.5398 189.485 26.71C189.517 26.8779 189.534 27.0458 189.534 27.2136V29.2626H189.023ZM186.329 29.2626V25.5372H186.788V26.4547H186.839V29.2626H186.329ZM193.181 29.2626C192.972 29.3063 192.765 29.3236 192.561 29.3144C192.358 29.3052 192.176 29.2615 192.015 29.1833C191.857 29.1051 191.736 28.9832 191.653 28.8176C191.587 28.6797 191.55 28.5405 191.543 28.4003C191.538 28.2577 191.536 28.0956 191.536 27.9139V24.5023H192.04V27.8932C192.04 28.0496 192.041 28.1806 192.043 28.2864C192.048 28.3899 192.072 28.4819 192.116 28.5624C192.198 28.7165 192.329 28.8084 192.509 28.8383C192.69 28.8682 192.915 28.8613 193.181 28.8176V29.2626ZM190.739 25.9718V25.5372H193.181V25.9718H190.739ZM196.4 29.2626L198.111 24.2953H198.784L200.495 29.2626H199.967L198.342 24.5782H198.543L196.928 29.2626H196.4ZM197.163 28.0588V27.5827H199.729V28.0588H197.163ZM201.911 29.2626V24.2953H202.418V29.2626H201.911Z" fill="#21072D"/>
<defs>
<linearGradient id="paint0_linear_127_528" x1="17.1788" y1="0" x2="17.1788" y2="33.7587" gradientUnits="userSpaceOnUse">
<stop stop-color="#A558C8"/>
<stop offset="1" stop-color="#8832AF"/>
</linearGradient>
</defs>
</svg>
